<svg xmlns="http://www.w3.org/2000/svg" xmlns:se="http://svg-edit.googlecode.com" xmlns:xlink="http://www.w3.org/1999/xlink" xmlns:dc="http://purl.org/dc/elements/1.1/" xmlns:cc="http://creativecommons.org/ns#" xmlns:rdf="http://www.w3.org/1999/02/22-rdf-syntax-ns#" xmlns:inkscape="http://www.inkscape.org/namespaces/inkscape" viewBox="0 0 373 92" preserveAspectRatio="xMidYMid meet" class="css-1r1wgx8" id="fbfafaag">
  <defs id="SvgjsDefs1473"></defs>
<g id="SvgjsG1474" featurekey="root" fill="#ffffff"></g>
<g id="SvgjsG1475" featurekey="symbol1" fill="#ffffff" transform="matrix(1.011111111111111,0,0,1.011111111111111,4.944444444444445,-4.055555555555555)">
  <path d="M88.315,26.401L49.73,81.011L21.151,50.18l11.74-12.597l14.828,16.86l28.007-41.356C68.434,7.996,59.569,5,50,5  C25.147,5,5,25.147,5,50c0,24.854,20.147,45,45,45c24.854,0,45-20.146,45-45C95,41.344,92.551,33.263,88.315,26.401z"></path>
</g>
<g id="SvgjsG1476" featurekey="text1" fill="#ffffff" transform="matrix(3.1900932650557836,0,0,3.1900932650557836,117.16805994324267,-3.7839077620280754)">
  <path d="M1.2012 23.984375 l0 -14.648 l0.97656 0 l9.1797 9.1797 l0 -9.1797 l2.9297 0 l0 14.648 l-1.0742 0 l-9.082 -9.082 l0 9.082 l-2.9297 0 z M16.582026875 19.101575 q0 -2.1484375 1.3671875 -3.515625 t3.5156 -1.3672 t3.418 1.3672 t1.2695 3.5156 l0 0.97656 l-6.7383 0 q0.09765625 0.78125 0.68359375 1.220703125 t1.3672 0.43945 q1.3671875 0 2.44140625 -0.78125 l1.5625 1.5625 q-1.07421875 1.46484375 -4.00390625 1.46484375 q-2.1484375 0 -3.515625 -1.3671875 t-1.3672 -3.5156 z M22.832046875 16.904275 q-0.5859375 -0.439453125 -1.3671875 -0.439453125 t-1.3672 0.43945 t-0.58594 1.2207 l3.9063 0 q0 -0.78125 -0.5859375 -1.220703125 z M32.71481875 23.984375 q-1.66015625 0 -2.63671875 -0.927734375 t-0.97656 -2.3926 l0 -4.2285 l-1.4648 0 l0 -2.207 l1.4648 0 l0 -2.6465 l2.7441 -0.29297 l0 2.9395 l1.4648 0 l0 2.207 l-1.4648 0 l0 3.8379 q0 0.78125 0.3271484375 1.098632813 t0.84473 0.31738 q0.15625 0 0.732421875 -0.126953125 l0.57617 1.9629 q-0.703125 0.458984375 -1.611328125 0.458984375 z M36.210965625 23.984375 l0 -14.648 l6.3867 0 q5.126953125 0 5.126953125 4.21875 q0 4.375 -5.1171875 4.375 l-3.4668 0 l0 6.0547 l-2.9297 0 z M39.140665625 15.195275 l4.1016 0 q1.767578125 -0.029296875 1.81640625 -1.611328125 q-0.048828125 -1.4453125 -1.787109375 -1.50390625 l-4.1309 0 l0 3.1152 z M49.140620625 19.101575 q0 -2.1484375 1.3671875 -3.515625 t3.5156 -1.3672 t3.418 1.3672 t1.2695 3.5156 l0 0.97656 l-6.7383 0 q0.09765625 0.78125 0.68359375 1.220703125 t1.3672 0.43945 q1.3671875 0 2.44140625 -0.78125 l1.5625 1.5625 q-1.07421875 1.46484375 -4.00390625 1.46484375 q-2.1484375 0 -3.515625 -1.3671875 t-1.3672 -3.5156 z M55.390640625 16.904275 q-0.5859375 -0.439453125 -1.3671875 -0.439453125 t-1.3672 0.43945 t-0.58594 1.2207 l3.9063 0 q0 -0.78125 -0.5859375 -1.220703125 z M66.9141125 20.605475 l0 -6.3867 l2.7344 0 l0 8.9844 q0 2.05078125 -1.26953125 3.427734375 t-3.0273 1.4551 l-0.58594 0.058594 q-2.05078125 -0.05859375 -3.7109375 -1.62109375 l1.2695 -1.4648 q1.171875 0.87890625 2.216796875 0.9765625 q1.26953125 0 1.821289063 -0.634765625 t0.55176 -1.8066 l0 -0.49805 q-1.03515625 0.888671875 -2.392578125 0.888671875 q-1.85546875 0 -2.83203125 -1.123046875 t-0.97656 -2.5879 l0 -6.0547 l2.7344 0 l0 5.3711 q0 0.9765625 0.48828125 1.513671875 t1.4746 0.56641 q0.859375 -0.05859375 1.50390625 -1.064453125 z M72.0605375 15.390575 q1.85546875 -1.171875 4.296875 -1.171875 q1.7578125 0 2.783203125 0.9765625 t1.0254 2.9297 l0 5.8594 l-2.7344 0 l0 -0.78125 q-1.19140625 0.78125 -2.1484375 0.78125 q-1.953125 0 -2.9296875 -0.830078125 t-0.97656 -2.2949 q0 -1.3671875 0.9228515625 -2.44140625 t2.9834 -1.0742 q0.947265625 0 2.1484375 0.5859375 l0 -0.29297 q-0.01953125 -1.07421875 -1.5625 -1.171875 q-1.7578125 0 -2.734375 0.5859375 z M77.4316375 21.054675 l0 -1.1035 q-0.390625 -0.751953125 -1.85546875 -0.751953125 q-1.7578125 0.1953125 -1.85546875 1.3671875 q0.09765625 1.162109375 1.85546875 1.259765625 q1.46484375 0 1.85546875 -0.771484375 z"></path>
</g>
</svg>
